<svg id="eaIwWTHRFSe1" xmlns="http://www.w3.org/2000/svg" xmlns:xlink="http://www.w3.org/1999/xlink" viewBox="0 0 550 200" shape-rendering="geometricPrecision" text-rendering="geometricPrecision" project-id="ad24cab93763460c8c5e92c056c87dc4" export-id="93bc7c7bb0154ec7a76addf990afed77" cached="false">
<style><![CDATA[
@keyframes eaIwWTHRFSe1_glow { 0% {box-shadow: 0 0 10px 5px #fff} 50% {box-shadow: 0 0 10px 5px #fff} 100% {box-shadow: 0 0 10px 5px #fff}} #eaIwWTHRFSe1 {animation: eaIwWTHRFSe1_glow 10000ms ease-in-out 5000ms infinite alternate forwards}@keyframes eaIwWTHRFSe1_c_o { 0% {opacity: 0.2} 16.666667% {opacity: 1} 33.333333% {opacity: 1} 50% {opacity: 0.2} 66.666667% {opacity: 0.2} 83.333333% {opacity: 1} 100% {opacity: 1}}
#eaIwWTHRFSe5 {animation: eaIwWTHRFSe5_c_o 10000ms ease-in-out infinite alternate forwards}@keyframes eaIwWTHRFSe5_c_o { 0% {opacity: 0.2} 16.666667% {opacity: 1} 33.333333% {opacity: 1} 50% {opacity: 0.2} 66.666667% {opacity: 0.2} 83.333333% {opacity: 1} 100% {opacity: 1}} #eaIwWTHRFSe8 {animation: eaIwWTHRFSe8_c_o 10000ms ease-in-out infinite alternate forwards}@keyframes eaIwWTHRFSe8_c_o { 0% {opacity: 0.2} 33.333333% {opacity: 0.2} 50% {opacity: 1} 100% {opacity: 1}} #eaIwWTHRFSe9 {animation: eaIwWTHRFSe9_c_o 10000ms ease-in-out infinite alternate forwards}@keyframes eaIwWTHRFSe9_c_o { 0% {opacity: 0.2} 16.666667% {opacity: 1} 100% {opacity: 1}} #eaIwWTHRFSe13 {animation: eaIwWTHRFSe13_c_o 10000ms ease-in-out infinite alternate forwards}@keyframes eaIwWTHRFSe13_c_o { 0% {opacity: 0.2} 66.666667% {opacity: 0.2} 83.333333% {opacity: 1} 100% {opacity: 1}}
]]></style>
<defs><linearGradient id="eaIwWTHRFSe6-fill" x1="0" y1="0.5" x2="1" y2="0.5" spreadMethod="pad" gradientUnits="objectBoundingBox" gradientTransform="translate(0 0)"><stop id="eaIwWTHRFSe6-fill-0" offset="0%" stop-color="#644b00"/><stop id="eaIwWTHRFSe6-fill-1" offset="100%" stop-color="#e7ad01"/></linearGradient><linearGradient id="eaIwWTHRFSe10-fill" x1="0.5" y1="0" x2="0.5" y2="1" spreadMethod="pad" gradientUnits="objectBoundingBox" gradientTransform="translate(0 0)"><stop id="eaIwWTHRFSe10-fill-0" offset="0%" stop-color="#644b00"/><stop id="eaIwWTHRFSe10-fill-1" offset="100%" stop-color="#e7ad01"/></linearGradient><linearGradient id="eaIwWTHRFSe14-fill" x1="0.58" y1="0" x2="0.42" y2="1" spreadMethod="pad" gradientUnits="objectBoundingBox" gradientTransform="translate(0 0)"><stop id="eaIwWTHRFSe14-fill-0" offset="0%" stop-color="#644b00"/><stop id="eaIwWTHRFSe14-fill-1" offset="52.965071%" stop-color="#a97f01"/><stop id="eaIwWTHRFSe14-fill-2" offset="100%" stop-color="#e7ad01"/></linearGradient></defs><g><g transform="translate(-445-412)"><g transform="translate(445 412)"><g id="eaIwWTHRFSe5" opacity="0"><polygon points="450,100 500,0 550,0 500,100 550,200 500,200" fill="url(#eaIwWTHRFSe6-fill)" fill-rule="evenodd"/><path d="M450,100L400,200v0c30.643303,0,58.656578-17.313156,72.36068-44.72136L500,100L472.36068,44.72136C458.656578,17.313156,430.643303,0,400,0v0l50,100Z" fill="#e7ad01" fill-rule="evenodd"/></g><path id="eaIwWTHRFSe8" d="M325,0v0c27.614237,0,50,22.385763,50,50v150v0c-27.614237,0-50-22.385763-50-50v-150Z" opacity="0" fill="#e7ad01" fill-rule="evenodd"/><g id="eaIwWTHRFSe9" opacity="0"><path d="M183.172433,129c10.758946,14.335536,31.05822,24,54.327567,24s43.568621-9.664464,54.327567-24C297.028463,135.929827,300,143.951178,300,152.5c0,26.233526-27.982203,47.5-62.5,47.5s-62.5-21.266474-62.5-47.5c0-8.548822,2.971537-16.570173,8.172433-23.5Z" fill="url(#eaIwWTHRFSe10-fill)" fill-rule="evenodd"/><path d="M300,0v0v149.990001c0,27.072888-21.946912,49.0198-49.0198,49.0198-.326758,0-.653508-.003267-.9802-.009801v0-149c0-27.614237,22.385763-50,50-50Z" fill="#e7ad01" fill-rule="evenodd"/><path d="M175,0v0c27.614237,0,50,22.385763,50,50v149v0c-27.067475.54135-49.448849-20.962324-49.990199-48.029799-.006534-.326693-.009801-.653442-.009801-.9802L175,0Z" fill="#e7ad01" fill-rule="evenodd"/></g><g id="eaIwWTHRFSe13" opacity="0"><path d="M50,75v0v75c0,27.614237-22.385762,50-50,50v0-75C0,97.385763,22.385763,75,50,75Z" fill="url(#eaIwWTHRFSe14-fill)" fill-rule="evenodd"/><path d="M50,75h75v0c0,27.614237-22.385763,50-50,50h-75v0C0,97.385763,22.385763,75,50,75Z" fill="#e7ad01" fill-rule="evenodd"/><path d="M50,0h100v0c0,27.614238-22.385763,50-50,50L0,50v0C0,22.385763,22.385763,0,50,0Z" fill="#e7ad01" fill-rule="evenodd"/></g></g></g></g></svg>
