<?xml version="1.0" encoding="UTF-8"?>
<svg width="250px" height="250px" viewBox="0 0 250 250" version="1.1" xmlns="http://www.w3.org/2000/svg" xmlns:xlink="http://www.w3.org/1999/xlink">
    <!-- Generator: Sketch 53.2 (72643) - https://sketchapp.com -->
    <title>min</title>
    <desc>Created with Sketch.</desc>
    <defs>
        <linearGradient x1="58%" y1="0%" x2="42%" y2="100%" id="linearGradient-1">
            <stop stop-color="#644B00" offset="0%"></stop>
            <stop stop-color="#A97F01" offset="52.9650714%"></stop>
            <stop stop-color="#E7AD01" offset="100%"></stop>
        </linearGradient>
    </defs>
    <g id="min" stroke="none" stroke-width="1" fill="none" fill-rule="evenodd">
        <g id="Group" transform="translate(50.000000, 25.000000)">
            <path d="M50,75 L50,75 L50,150 C50,177.614237 27.6142375,200 2.79306127e-14,200 L2.48689958e-14,200 L2.48689958e-14,125 C2.1487227e-14,97.3857625 22.3857625,75 50,75 Z" id="Rectangle" fill="url(#linearGradient-1)"></path>
            <path d="M50,0 L150,0 L150,0 C150,27.6142375 127.614237,50 100,50 L0,50 L0,50 C-3.38176876e-15,22.3857625 22.3857625,3.38176876e-15 50,0 Z" id="Rectangle" fill="#E7AD01"></path>
            <path d="M50,75 L125,75 L125,75 C125,102.614237 102.614237,125 75,125 L0,125 L0,125 C-3.38176876e-15,97.3857625 22.3857625,75 50,75 Z" id="Rectangle" fill="#E7AD01"></path>
        </g>
    </g>
</svg>